<?xml version="1.0" encoding="UTF-8"?>
<svg viewBox="0 0 60 60" xmlns="http://www.w3.org/2000/svg">
 <path d="m6.4736 4.0543h47.45a2.3674 2.3674 0 0 1 2.3674 2.3674v42.261a2.3674 2.3674 0 0 1 -2.3674 2.3674h-47.45a2.3674 2.3674 0 0 1 -2.3674 -2.3674v-42.261a2.3674 2.3674 0 0 1 2.3674 -2.3674" fill="#ccc" fill-rule="evenodd" stroke="#4c4c4c" stroke-linecap="round" stroke-linejoin="round" stroke-width="3.125"/>
 <path d="m6.4736 4.0543h47.45a2.3674 2.3674 0 0 1 2.3674 2.3674v42.261a2.3674 2.3674 0 0 1 -2.3674 2.3674h-47.45a2.3674 2.3674 0 0 1 -2.3674 -2.3674v-42.261a2.3674 2.3674 0 0 1 2.3674 -2.3674" fill="none" stroke="#4c4c4c" stroke-linecap="round" stroke-linejoin="round" stroke-width="3.125"/>
 <path d="m6.9364 3.9419h46.524a2.3212 2.3212 0 0 1 2.3212 2.3212v4.0794a2.3212 2.3212 0 0 1 -2.3212 2.3212h-46.524a2.3212 2.3212 0 0 1 -2.3212 -2.3212v-4.0794a2.3212 2.3212 0 0 1 2.3212 -2.3212" fill="#7f7f7f" fill-rule="evenodd" stroke="#4c4c4c" stroke-linecap="round" stroke-linejoin="round" stroke-width="3.677"/>
 <path d="m52.799 6.9479-2.706 2.706m-0.06293-2.769 2.769 2.769" fill="none" stroke="#4c4c4c" stroke-linecap="round" stroke-linejoin="round" stroke-width="1.875"/>
 <path transform="matrix(.74386 0 0 .74386 -19.938 26.777)" d="m42.74558-3.44909c-.52625,0-.96875.4425-.96875.96875v4.875c-.00115.02498-.03125.03722-.03125.0625v37c0,.8838.70996,1.59375 1.59375,1.59375h37.28125c.88379,0 1.59375-.70996 1.59375-1.59375v-37c0-.88379-.70996-1.59375-1.59375-1.59375h-14.71875v-3.34375c0-.52625-.4425-.96875-.96875-.96875h-22.1875z" fill="#b3b3b3" fill-rule="evenodd" stroke="#333" stroke-linejoin="round" stroke-width="3.3608"/>
 <path transform="matrix(.74386 0 -.26753 .69409 -19.938 26.777)" d="m59.34 10.606h37.286a1.5953 1.5953 0 0 1 1.5953 1.5953v30.26a1.5953 1.5953 0 0 1 -1.5953 1.5953h-37.286a1.5953 1.5953 0 0 1 -1.5953 -1.5953v-30.26a1.5953 1.5953 0 0 1 1.5953 -1.5953" fill="#7f7f7f" fill-rule="evenodd" stroke="#333" stroke-linejoin="round" stroke-width="3.4793"/>
</svg>
